<svg
  width="390"
  height="274"
  viewBox="0 0 390 274"
  fill="none"
  xmlns="http://www.w3.org/2000/svg"
  id="illustration"
>
  <g clip-path="url(#clip0)">
    <path
      d="M203.218 153.368H176.281V154.237H180.482V162.492H181.351V154.237H197.713V162.492H198.582V154.237H203.218V153.368Z"
      fill="#3F3D56"
    />
    <path
      d="M213.21 132.08H206.259V139.031H209.481V162.454H210.35V139.031H213.21V132.08Z"
      fill="#3F3D56"
    />
    <path
      d="M203.271 150.769H176.334V151.637H203.271V150.769Z"
      fill="#3F3D56"
    />
    <path
      d="M203.271 148.596H176.334V149.465H203.271V148.596Z"
      fill="#3F3D56"
    />
    <path
      d="M203.271 146.424H176.334V147.293H203.271V146.424Z"
      fill="#3F3D56"
    />
    <path
      d="M272.297 164.996H271.428C271.428 123.791 237.905 90.269 196.701 90.269C155.496 90.269 121.974 123.791 121.974 164.996H121.105C121.105 123.312 155.017 89.4001 196.701 89.4001C238.385 89.4001 272.297 123.312 272.297 164.996Z"
      fill="#3F3D56"
    />
    <path
      d="M71.0343 142.069C110.266 142.069 142.069 110.266 142.069 71.0343C142.069 31.8032 110.266 0 71.0343 0C31.8032 0 0 31.8032 0 71.0343C0 110.266 31.8032 142.069 71.0343 142.069Z"
      fill="#0093E2"
    />
    <path
      opacity="0.2"
      d="M123.874 23.589C130.5 39.0882 131.399 56.4384 126.41 72.5393C121.421 88.6402 110.87 102.443 96.6412 111.48C82.4127 120.517 65.4342 124.201 48.7397 121.873C32.0452 119.544 16.7226 111.355 5.50989 98.7696C9.55749 108.239 15.6155 116.715 23.2641 123.611C30.9127 130.507 39.9691 135.657 49.8058 138.705C59.6425 141.753 70.0243 142.626 80.2319 141.264C90.4395 139.901 100.229 136.336 108.922 130.814C117.615 125.293 125.003 117.948 130.575 109.287C136.148 100.627 139.77 90.8587 141.193 80.6593C142.615 70.4599 141.803 60.0731 138.812 50.2187C135.822 40.3643 130.725 31.2779 123.874 23.589Z"
      fill="black"
    />
    <path
      d="M71.2295 71.0345H71.4245L74.9372 272.429H67.5217L71.2295 71.0345Z"
      fill="#3F3D56"
    />
    <path
      d="M84.1636 180.733L82.5272 177.624L70.785 183.806L72.4214 186.915L84.1636 180.733Z"
      fill="#3F3D56"
    />
    <path
      d="M332.507 158.664C364.259 158.664 390 132.924 390 101.171C390 69.4185 364.259 43.678 332.507 43.678C300.754 43.678 275.014 69.4185 275.014 101.171C275.014 132.924 300.754 158.664 332.507 158.664Z"
      fill="#0093E2"
    />
    <path
      opacity="0.2"
      d="M375.274 62.7702C380.637 75.3148 381.364 89.3576 377.326 102.389C373.289 115.421 364.749 126.592 353.232 133.907C341.716 141.221 327.974 144.203 314.462 142.318C300.95 140.434 288.548 133.806 279.473 123.619C282.749 131.284 287.652 138.144 293.843 143.725C300.034 149.306 307.364 153.475 315.325 155.942C323.287 158.409 331.689 159.116 339.951 158.013C348.213 156.91 356.136 154.024 363.172 149.555C370.208 145.087 376.188 139.141 380.698 132.132C385.208 125.123 388.14 117.216 389.291 108.961C390.442 100.706 389.785 92.2994 387.364 84.3236C384.944 76.3477 380.819 68.9934 375.274 62.7702Z"
      fill="black"
    />
    <path
      d="M332.665 101.171H332.823L335.666 264.174H329.664L332.665 101.171Z"
      fill="#3F3D56"
    />
    <path
      d="M343.133 189.958L341.809 187.442L332.305 192.446L333.629 194.961L343.133 189.958Z"
      fill="#3F3D56"
    />
    <path
      d="M162.85 150.679C167.849 150.679 171.901 146.627 171.901 141.629C171.901 136.63 167.849 132.578 162.85 132.578C157.851 132.578 153.799 136.63 153.799 141.629C153.799 146.627 157.851 150.679 162.85 150.679Z"
      fill="#0093E2"
    />
    <path
      opacity="0.2"
      d="M169.582 135.583C170.427 137.558 170.541 139.769 169.906 141.82C169.27 143.872 167.925 145.63 166.113 146.782C164.3 147.933 162.136 148.403 160.009 148.106C157.882 147.809 155.93 146.766 154.501 145.162C155.017 146.369 155.789 147.449 156.763 148.327C157.738 149.206 158.892 149.862 160.145 150.251C161.398 150.639 162.721 150.75 164.022 150.577C165.322 150.403 166.57 149.949 167.677 149.245C168.785 148.542 169.726 147.606 170.436 146.502C171.146 145.399 171.608 144.154 171.789 142.855C171.97 141.555 171.867 140.232 171.486 138.976C171.105 137.721 170.455 136.563 169.582 135.583Z"
      fill="black"
    />
    <path
      d="M162.875 141.629H162.9L163.347 167.289H162.402L162.875 141.629Z"
      fill="#3F3D56"
    />
    <path
      d="M164.523 155.606L164.314 155.21L162.818 155.997L163.027 156.393L164.523 155.606Z"
      fill="#3F3D56"
    />
    <path
      d="M246.484 135.628C259.28 135.628 269.654 125.254 269.654 112.458C269.654 99.6607 259.28 89.2868 246.484 89.2868C233.687 89.2868 223.313 99.6607 223.313 112.458C223.313 125.254 233.687 135.628 246.484 135.628Z"
      fill="#0093E2"
    />
    <path
      opacity="0.2"
      d="M263.719 96.9813C265.881 102.037 266.174 107.696 264.547 112.948C262.919 118.2 259.478 122.703 254.836 125.651C250.195 128.599 244.657 129.8 239.211 129.041C233.766 128.281 228.768 125.61 225.11 121.505C226.43 124.593 228.407 127.358 230.901 129.608C233.396 131.857 236.35 133.537 239.559 134.531C242.768 135.525 246.154 135.81 249.484 135.366C252.813 134.921 256.007 133.758 258.842 131.957C261.678 130.156 264.088 127.76 265.905 124.935C267.723 122.11 268.905 118.924 269.369 115.597C269.833 112.27 269.568 108.882 268.592 105.668C267.617 102.453 265.954 99.4894 263.719 96.9813Z"
      fill="black"
    />
    <path
      d="M246.547 112.458H246.611L247.757 178.151H245.338L246.547 112.458Z"
      fill="#3F3D56"
    />
    <path
      d="M250.766 148.24L250.232 147.226L246.402 149.243L246.936 150.257L250.766 148.24Z"
      fill="#3F3D56"
    />
    <path
      d="M86.9586 262.403C86.9586 262.403 87.2586 256.116 93.4091 256.847L86.9586 262.403Z"
      fill="#3F3D56"
    />
    <path
      d="M85.2207 256.42C86.9208 256.42 88.299 255.042 88.299 253.342C88.299 251.642 86.9208 250.264 85.2207 250.264C83.5206 250.264 82.1425 251.642 82.1425 253.342C82.1425 255.042 83.5206 256.42 85.2207 256.42Z"
      fill="#0093E2"
    />
    <path
      d="M85.5888 258.526H84.7198V264.608H85.5888V258.526Z"
      fill="#3F3D56"
    />
    <path
      d="M108.682 248.066C108.682 248.066 108.982 241.779 115.132 242.51L108.682 248.066Z"
      fill="#3F3D56"
    />
    <path
      d="M106.944 242.083C108.644 242.083 110.022 240.705 110.022 239.005C110.022 237.305 108.644 235.927 106.944 235.927C105.244 235.927 103.865 237.305 103.865 239.005C103.865 240.705 105.244 242.083 106.944 242.083Z"
      fill="#0093E2"
    />
    <path
      d="M107.312 244.188H106.443V250.271H107.312V244.188Z"
      fill="#3F3D56"
    />
    <path
      d="M174.163 199.425C174.163 199.425 174.401 194.432 179.286 195.013L174.163 199.425Z"
      fill="#3F3D56"
    />
    <path
      d="M172.783 194.674C174.133 194.674 175.228 193.579 175.228 192.229C175.228 190.878 174.133 189.784 172.783 189.784C171.433 189.784 170.338 190.878 170.338 192.229C170.338 193.579 171.433 194.674 172.783 194.674Z"
      fill="#0093E2"
    />
    <path
      d="M173.075 196.346H172.385V201.177H173.075V196.346Z"
      fill="#3F3D56"
    />
    <path
      d="M269.745 183.785C269.745 183.785 269.983 178.792 274.868 179.372L269.745 183.785Z"
      fill="#3F3D56"
    />
    <path
      d="M268.364 179.033C269.715 179.033 270.809 177.939 270.809 176.588C270.809 175.238 269.715 174.143 268.364 174.143C267.014 174.143 265.919 175.238 265.919 176.588C265.919 177.939 267.014 179.033 268.364 179.033Z"
      fill="#0093E2"
    />
    <path
      d="M268.657 180.705H267.966V185.536H268.657V180.705Z"
      fill="#3F3D56"
    />
    <path
      d="M178.508 212.459C178.508 212.459 178.746 207.466 183.631 208.046L178.508 212.459Z"
      fill="#3F3D56"
    />
    <path
      d="M177.128 207.708C178.478 207.708 179.572 206.613 179.572 205.263C179.572 203.912 178.478 202.818 177.128 202.818C175.777 202.818 174.683 203.912 174.683 205.263C174.683 206.613 175.777 207.708 177.128 207.708Z"
      fill="#0093E2"
    />
    <path d="M177.42 209.38H176.73V214.211H177.42V209.38Z" fill="#3F3D56" />
    <path
      d="M168.081 222.017C168.081 222.017 168.319 217.024 173.204 217.604L168.081 222.017Z"
      fill="#3F3D56"
    />
    <path
      d="M166.7 217.266C168.051 217.266 169.145 216.171 169.145 214.821C169.145 213.47 168.051 212.376 166.7 212.376C165.35 212.376 164.256 213.47 164.256 214.821C164.256 216.171 165.35 217.266 166.7 217.266Z"
      fill="#0093E2"
    />
    <path
      d="M166.993 218.938H166.303V223.769H166.993V218.938Z"
      fill="#3F3D56"
    />
    <path
      d="M284.516 192.039C284.516 192.039 284.755 187.046 289.64 187.627L284.516 192.039Z"
      fill="#3F3D56"
    />
    <path
      d="M283.136 187.288C284.486 187.288 285.581 186.193 285.581 184.843C285.581 183.493 284.486 182.398 283.136 182.398C281.786 182.398 280.691 183.493 280.691 184.843C280.691 186.193 281.786 187.288 283.136 187.288Z"
      fill="#0093E2"
    />
    <path d="M283.428 188.96H282.738V193.791H283.428V188.96Z" fill="#3F3D56" />
    <path
      d="M143.751 202.901C143.751 202.901 143.989 197.908 148.874 198.488L143.751 202.901Z"
      fill="#3F3D56"
    />
    <path
      d="M142.371 198.149C143.721 198.149 144.816 197.055 144.816 195.704C144.816 194.354 143.721 193.26 142.371 193.26C141.02 193.26 139.926 194.354 139.926 195.704C139.926 197.055 141.02 198.149 142.371 198.149Z"
      fill="#0093E2"
    />
    <path
      d="M142.663 199.822H141.973V204.653H142.663V199.822Z"
      fill="#3F3D56"
    />
    <path
      d="M256.711 178.137C256.711 178.137 256.949 173.144 261.834 173.724L256.711 178.137Z"
      fill="#3F3D56"
    />
    <path
      d="M255.33 173.385C256.681 173.385 257.775 172.29 257.775 170.94C257.775 169.59 256.681 168.495 255.33 168.495C253.98 168.495 252.886 169.59 252.886 170.94C252.886 172.29 253.98 173.385 255.33 173.385Z"
      fill="#0093E2"
    />
    <path
      d="M255.623 175.057H254.933V179.888H255.623V175.057Z"
      fill="#3F3D56"
    />
    <path
      d="M49.1605 263.706C49.1605 263.706 49.4605 257.42 55.611 258.15L49.1605 263.706Z"
      fill="#3F3D56"
    />
    <path
      d="M47.4226 257.724C49.1227 257.724 50.5009 256.346 50.5009 254.645C50.5009 252.945 49.1227 251.567 47.4226 251.567C45.7225 251.567 44.3444 252.945 44.3444 254.645C44.3444 256.346 45.7225 257.724 47.4226 257.724Z"
      fill="#0093E2"
    />
    <path
      d="M47.7907 259.829H46.9218V265.912H47.7907V259.829Z"
      fill="#3F3D56"
    />
    <path
      d="M348.504 261.968C348.504 261.968 348.804 255.682 354.955 256.412L348.504 261.968Z"
      fill="#3F3D56"
    />
    <path
      d="M346.766 255.986C348.466 255.986 349.844 254.608 349.844 252.908C349.844 251.208 348.466 249.829 346.766 249.829C345.066 249.829 343.688 251.208 343.688 252.908C343.688 254.608 345.066 255.986 346.766 255.986Z"
      fill="#0093E2"
    />
    <path
      d="M347.134 258.091H346.265V264.174H347.134V258.091Z"
      fill="#3F3D56"
    />
    <path
      d="M323.305 247.197C323.305 247.197 323.605 240.91 329.756 241.641L323.305 247.197Z"
      fill="#3F3D56"
    />
    <path
      d="M321.567 241.214C323.268 241.214 324.646 239.836 324.646 238.136C324.646 236.436 323.268 235.058 321.567 235.058C319.867 235.058 318.489 236.436 318.489 238.136C318.489 239.836 319.867 241.214 321.567 241.214Z"
      fill="#0093E2"
    />
    <path d="M321.935 243.32H321.067V249.402H321.935V243.32Z" fill="#3F3D56" />
    <path
      d="M319.83 269.354C319.83 269.354 320.13 263.068 326.28 263.798L319.83 269.354Z"
      fill="#3F3D56"
    />
    <path
      d="M318.092 263.372C319.792 263.372 321.17 261.994 321.17 260.293C321.17 258.593 319.792 257.215 318.092 257.215C316.392 257.215 315.013 258.593 315.013 260.293C315.013 261.994 316.392 263.372 318.092 263.372Z"
      fill="#0093E2"
    />
    <path d="M318.46 265.477H317.591V271.56H318.46V265.477Z" fill="#3F3D56" />
    <path
      d="M54.1618 274.046C54.1618 274.046 191.017 237.986 189.714 201.056C187.324 190.847 170.815 188.24 170.815 188.24C170.815 188.24 131.713 183.026 153.002 170.427C174.29 157.828 232.508 160.869 232.508 160.869C232.508 160.869 172.552 170.427 199.054 175.641C220.343 176.944 247.714 182.592 247.714 182.592C247.714 182.592 303.325 194.322 311.145 222.997C318.966 251.671 312.449 273.829 312.449 273.829L54.1618 274.046Z"
      fill="#E6E6E6"
    />
    <path
      d="M203.221 274.187L202.708 273.47C203.432 272.953 204.145 272.438 204.847 271.926L205.366 272.638C204.661 273.151 203.946 273.667 203.221 274.187Z"
      fill="white"
    />
    <path
      d="M209.609 269.487L209.077 268.786C210.5 267.708 211.901 266.625 213.242 265.564L213.788 266.255C212.442 267.319 211.036 268.407 209.609 269.487ZM217.895 262.928L217.333 262.251C218.71 261.106 220.057 259.957 221.335 258.834L221.916 259.495C220.632 260.624 219.279 261.779 217.895 262.928ZM225.834 255.942L225.231 255.299C226.545 254.067 227.812 252.833 228.997 251.631L229.624 252.25C228.432 253.459 227.156 254.701 225.834 255.942ZM233.256 248.396L232.601 247.808C233.808 246.463 234.95 245.116 235.994 243.805L236.683 244.353C235.628 245.678 234.475 247.038 233.256 248.396ZM239.839 240.09L239.111 239.593C240.135 238.093 241.058 236.596 241.856 235.143L242.628 235.567C241.817 237.044 240.878 238.566 239.839 240.09ZM244.902 230.75L244.082 230.429C244.721 228.817 245.221 227.154 245.577 225.458L246.439 225.635C246.073 227.381 245.559 229.092 244.902 230.75V230.75ZM246.077 220.318C246.051 218.607 245.813 216.905 245.369 215.252L246.219 215.023C246.682 216.746 246.93 218.519 246.958 220.303L246.077 220.318ZM243.443 210.499C242.607 208.989 241.625 207.564 240.513 206.245L241.187 205.68C242.337 207.043 243.351 208.516 244.215 210.076L243.443 210.499ZM236.874 202.529C235.566 201.377 234.195 200.297 232.769 199.294L233.277 198.575C234.73 199.596 236.126 200.696 237.458 201.87L236.874 202.529ZM228.356 196.461C226.916 195.614 225.362 194.769 223.739 193.95L224.136 193.164C225.776 193.991 227.346 194.845 228.803 195.701L228.356 196.461ZM218.98 191.7C217.448 191.019 215.815 190.333 214.128 189.662L214.454 188.844C216.152 189.519 217.795 190.209 219.338 190.895L218.98 191.7ZM209.191 187.791C207.623 187.222 205.946 186.638 204.207 186.055L204.487 185.221C206.232 185.806 207.916 186.392 209.492 186.963L209.191 187.791ZM199.184 184.424C197.65 183.94 195.998 183.431 194.134 182.866L194.389 182.024C196.256 182.589 197.911 183.1 199.449 183.584L199.184 184.424ZM189.068 181.346C187.286 180.813 185.588 180.304 183.998 179.814L184.258 178.972C185.845 179.462 187.541 179.97 189.32 180.502L189.068 181.346ZM178.949 178.181C177.255 177.622 175.599 176.956 173.99 176.185L174.386 175.398C175.96 176.152 177.58 176.803 179.237 177.349L178.949 178.181ZM172.3 172.41L171.672 171.792C172.475 170.977 174.063 170.179 176.526 169.352L176.806 170.187C174.509 170.957 172.993 171.705 172.3 172.41L172.3 172.41ZM181.843 168.753L181.63 167.898C183.153 167.519 184.888 167.122 186.786 166.719L186.969 167.581C185.081 167.981 183.356 168.376 181.843 168.753V168.753ZM192.132 166.544L191.966 165.679C193.589 165.369 195.336 165.047 197.16 164.724L197.314 165.591C195.494 165.914 193.75 166.234 192.132 166.544V166.544ZM202.508 164.697L202.363 163.828C204.022 163.55 205.758 163.266 207.571 162.975L207.71 163.844C205.899 164.135 204.164 164.419 202.508 164.697Z"
      fill="white"
    />
    <path
      d="M213.02 163.008L212.885 162.138C213.741 162.006 214.612 161.872 215.498 161.737L215.63 162.607C214.744 162.742 213.874 162.876 213.02 163.008Z"
      fill="white"
    />
    <path
      d="M232.506 73.5732L236.506 70.3744C233.399 70.0316 232.122 71.7261 231.6 73.0673C229.172 72.0594 226.53 73.3803 226.53 73.3803L234.532 76.2855C234.128 75.2072 233.426 74.2663 232.506 73.5732Z"
      fill="#3F3D56"
    />
    <path
      d="M158.213 98.3375L162.213 95.1386C159.106 94.7958 157.829 96.4904 157.307 97.8316C154.879 96.8237 152.237 98.1446 152.237 98.1446L160.239 101.05C159.836 99.9714 159.133 99.0306 158.213 98.3375Z"
      fill="#3F3D56"
    />
    <path
      d="M177.764 47.0711L181.764 43.8723C178.657 43.5295 177.38 45.224 176.858 46.5652C174.43 45.5573 171.788 46.8782 171.788 46.8782L179.79 49.7833C179.386 48.7051 178.684 47.7642 177.764 47.0711Z"
      fill="#3F3D56"
    />
    <path
      d="M221.243 189.5C221.243 189.5 217.778 189.5 217.394 191.617C217.009 193.734 216.431 216.828 216.816 219.715C217.201 222.602 217.201 222.025 217.201 222.025C217.201 222.025 216.434 227.511 218.165 227.751C219.895 227.991 219.895 221.447 219.895 221.447L221.243 197.968V189.5Z"
      fill="#9E616A"
    />
    <path
      d="M236.254 189.5C236.254 189.5 239.718 189.5 240.103 191.617C240.488 193.734 241.065 216.828 240.68 219.715C240.296 222.602 240.296 222.025 240.296 222.025C240.296 222.025 241.063 227.511 239.332 227.751C237.601 227.991 237.601 221.447 237.601 221.447L236.254 197.968V189.5Z"
      fill="#9E616A"
    />
    <path
      d="M220.665 269.946H219.126C218.671 269.946 218.22 270.035 217.8 270.21C217.38 270.384 216.998 270.639 216.676 270.96C216.354 271.282 216.099 271.664 215.925 272.084C215.751 272.505 215.661 272.955 215.661 273.41V273.41H225.092V268.984H220.665V269.946Z"
      fill="#2F2E41"
    />
    <path
      d="M235.484 269.946H237.024C237.943 269.946 238.824 270.311 239.473 270.96C240.123 271.61 240.488 272.491 240.488 273.41V273.41H231.058V268.984H235.484V269.946Z"
      fill="#2F2E41"
    />
    <path
      d="M227.209 185.074C229.972 185.074 232.212 182.833 232.212 180.07C232.212 177.306 229.972 175.066 227.209 175.066C224.445 175.066 222.205 177.306 222.205 180.07C222.205 182.833 224.445 185.074 227.209 185.074Z"
      fill="#9E616A"
    />
    <path
      d="M226.054 182.764C226.054 182.764 225.477 189.115 224.707 189.692C223.937 190.27 232.79 189.307 232.79 189.307C232.79 189.307 229.711 184.689 230.288 183.149C230.865 181.609 226.054 182.764 226.054 182.764Z"
      fill="#9E616A"
    />
    <path
      d="M237.409 189.5C237.409 189.5 226.824 185.074 219.895 189.5C219.895 189.5 218.163 193.926 219.51 196.428C220.858 198.93 222.975 204.896 220.858 208.938C218.741 212.979 221.05 211.247 221.05 211.247C221.05 211.247 218.356 222.025 217.971 230.493C217.586 238.961 219.126 269.369 220.28 269.561C221.435 269.753 225.092 270.138 225.477 269.561C225.862 268.984 228.556 228.761 228.556 228.761C228.556 228.761 229.711 269.946 230.865 269.946C232.02 269.946 235.099 269.946 235.677 268.984C236.254 268.021 241.065 230.878 239.333 223.18C237.601 215.481 236.446 211.632 236.446 211.632C236.446 211.632 238.564 210.285 237.986 209.515C237.409 208.745 234.522 200.47 235.869 199.123C237.216 197.775 237.409 189.5 237.409 189.5Z"
      fill="#2F2E41"
    />
    <path
      d="M230.384 185.137C234.848 185.137 238.467 181.518 238.467 177.054C238.467 172.59 234.848 168.971 230.384 168.971C225.92 168.971 222.301 172.59 222.301 177.054C222.301 181.518 225.92 185.137 230.384 185.137Z"
      fill="#2F2E41"
    />
    <path
      d="M235.432 173.007C234.069 172.687 232.883 171.855 232.118 170.684C231.353 169.512 231.069 168.091 231.323 166.715C231.3 166.798 231.278 166.881 231.258 166.966C230.928 168.371 231.171 169.85 231.931 171.077C232.692 172.304 233.908 173.179 235.314 173.509C236.719 173.839 238.198 173.598 239.425 172.838C240.653 172.078 241.528 170.862 241.859 169.457C241.879 169.372 241.896 169.288 241.912 169.203C241.528 170.548 240.64 171.694 239.433 172.402C238.227 173.111 236.794 173.327 235.432 173.007Z"
      fill="#2F2E41"
    />
    <path
      d="M235.761 174.061C237.945 174.061 239.716 172.29 239.716 170.105C239.716 167.92 237.945 166.149 235.761 166.149C233.576 166.149 231.805 167.92 231.805 170.105C231.805 172.29 233.576 174.061 235.761 174.061Z"
      fill="#2F2E41"
    />
  </g>
  <defs>
    <clipPath id="clip0">
      <rect width="390" height="274.187" fill="white" />
    </clipPath>
  </defs>
</svg>
